<svg width="20" height="20" viewBox="0 0 20 20" fill="none" xmlns="http://www.w3.org/2000/svg">
<g clip-path="url(#clip0_1277_2569)">
<path d="M19.173 9.71051C19.173 8.93164 19.1111 8.36326 18.9772 7.77385H10.2715V11.2893H15.3816C15.2786 12.1629 14.7222 13.4786 13.4859 14.3627L13.4686 14.4804L16.2212 16.6589L16.4119 16.6783C18.1633 15.0258 19.173 12.5944 19.173 9.71051Z" fill="#4285F4"/>
<path d="M10.2717 18.9729C12.7752 18.9729 14.8769 18.1308 16.412 16.6783L13.4861 14.3627C12.7031 14.9205 11.6522 15.31 10.2717 15.31C7.81963 15.31 5.73851 13.6575 4.99664 11.3735L4.8879 11.383L2.02571 13.6459L1.98828 13.7522C3.51306 16.8467 6.64508 18.9729 10.2717 18.9729Z" fill="#34A853"/>
<path d="M4.9974 11.3735C4.80165 10.7841 4.68836 10.1525 4.68836 9.50001C4.68836 8.84739 4.80165 8.21589 4.9871 7.62648L4.98191 7.50095L2.08385 5.20163L1.98903 5.24771C1.3606 6.53182 1 7.97383 1 9.50001C1 11.0262 1.3606 12.4681 1.98903 13.7522L4.9974 11.3735Z" fill="#FBBC05"/>
<path d="M10.2717 3.68996C12.0128 3.68996 13.1873 4.45831 13.857 5.1004L16.4738 2.49009C14.8667 0.96391 12.7752 0.0271454 10.2717 0.0271454C6.64508 0.0271454 3.51306 2.15326 1.98828 5.2477L4.98635 7.62647C5.73851 5.34247 7.81963 3.68996 10.2717 3.68996Z" fill="#EB4335"/>
</g>
<defs>
<clipPath id="clip0_1277_2569">
<rect x="1" width="18.1739" height="19" rx="9.08696" fill="white"/>
</clipPath>
</defs>
</svg>
