<svg width="107" height="20" viewBox="0 0 107 20" fill="none" xmlns="http://www.w3.org/2000/svg">
<path d="M0.00200018 19V0.799999H5.878C7.29933 0.799999 8.46067 1.04267 9.362 1.528C10.2633 1.996 10.9307 2.62867 11.364 3.426C11.7973 4.22333 12.014 5.12467 12.014 6.13C12.014 7.10067 11.7887 7.99333 11.338 8.808C10.9047 9.62267 10.2287 10.2727 9.31 10.758C8.39133 11.2433 7.21267 11.486 5.774 11.486H2.186V19H0.00200018ZM9.622 19L5.618 10.862H8.062L12.196 19H9.622ZM2.186 9.77H5.722C7.10867 9.77 8.12267 9.432 8.764 8.756C9.42267 8.08 9.752 7.21333 9.752 6.156C9.752 5.08133 9.43133 4.232 8.79 3.608C8.166 2.96667 7.13467 2.646 5.696 2.646H2.186V9.77ZM20.266 19.312C19.0526 19.312 17.978 19.0173 17.042 18.428C16.106 17.8387 15.3693 17.0067 14.832 15.932C14.312 14.8573 14.052 13.6007 14.052 12.162C14.052 10.7233 14.312 9.46667 14.832 8.392C15.3693 7.31733 16.106 6.48533 17.042 5.896C17.9953 5.30667 19.0873 5.012 20.318 5.012C21.6353 5.012 22.736 5.30667 23.62 5.896C24.504 6.48533 25.1713 7.274 25.622 8.262C26.0726 9.25 26.298 10.3333 26.298 11.512C26.298 11.6853 26.298 11.8587 26.298 12.032C26.298 12.2053 26.2893 12.4133 26.272 12.656H15.69V10.966H24.166C24.1313 9.63133 23.7413 8.61733 22.996 7.924C22.268 7.21333 21.358 6.858 20.266 6.858C19.538 6.858 18.862 7.04 18.238 7.404C17.6313 7.75067 17.1373 8.27067 16.756 8.964C16.3746 9.65733 16.184 10.524 16.184 11.564V12.292C16.184 13.436 16.3746 14.398 16.756 15.178C17.1373 15.9407 17.6313 16.5127 18.238 16.894C18.862 17.2753 19.538 17.466 20.266 17.466C21.2366 17.466 21.9993 17.284 22.554 16.92C23.1086 16.5387 23.516 16.0013 23.776 15.308H25.934C25.726 16.0707 25.362 16.7553 24.842 17.362C24.3393 17.9687 23.698 18.4453 22.918 18.792C22.1553 19.1387 21.2713 19.312 20.266 19.312ZM29.3245 19V5.324H31.3005L31.4045 7.482C31.8032 6.702 32.3752 6.09533 33.1205 5.662C33.8832 5.22867 34.7585 5.012 35.7465 5.012C36.7518 5.012 37.6272 5.20267 38.3725 5.584C39.1178 5.96533 39.6985 6.546 40.1145 7.326C40.5305 8.106 40.7385 9.094 40.7385 10.29V19H38.5545V10.524C38.5545 9.31067 38.2512 8.40067 37.6445 7.794C37.0552 7.18733 36.2578 6.884 35.2525 6.884C34.5765 6.884 33.9525 7.04867 33.3805 7.378C32.8085 7.69 32.3492 8.158 32.0025 8.782C31.6732 9.406 31.5085 10.1687 31.5085 11.07V19H29.3245ZM50.3358 19.312C49.0011 19.312 47.8398 19.0693 46.8518 18.584C45.8638 18.0987 45.1011 17.4227 44.5638 16.556C44.0264 15.6893 43.7578 14.684 43.7578 13.54H46.0458C46.0458 14.2507 46.2104 14.9093 46.5398 15.516C46.8691 16.1053 47.3458 16.582 47.9698 16.946C48.6111 17.2927 49.3998 17.466 50.3358 17.466C51.1504 17.466 51.8438 17.336 52.4158 17.076C53.0051 16.7987 53.4471 16.426 53.7418 15.958C54.0538 15.49 54.2098 14.9613 54.2098 14.372C54.2098 13.7133 54.0624 13.1673 53.7678 12.734C53.4904 12.2833 53.1004 11.9193 52.5978 11.642C52.0951 11.3473 51.5144 11.0873 50.8558 10.862C50.1971 10.6367 49.4864 10.4027 48.7238 10.16C47.1984 9.67467 46.0891 9.068 45.3958 8.34C44.7198 7.59467 44.3818 6.64133 44.3818 5.48C44.3818 4.492 44.6071 3.62533 45.0578 2.88C45.5258 2.13467 46.1844 1.554 47.0338 1.138C47.9004 0.704666 48.9231 0.488 50.1018 0.488C51.2631 0.488 52.2684 0.704666 53.1178 1.138C53.9844 1.57133 54.6604 2.16933 55.1458 2.932C55.6311 3.67733 55.8738 4.544 55.8738 5.532H53.5858C53.5858 5.02933 53.4558 4.53533 53.1958 4.05C52.9358 3.56467 52.5371 3.166 51.9998 2.854C51.4798 2.52467 50.8211 2.36 50.0238 2.36C49.3651 2.34267 48.7758 2.45533 48.2558 2.698C47.7531 2.92333 47.3544 3.25267 47.0598 3.686C46.7824 4.11933 46.6438 4.648 46.6438 5.272C46.6438 5.86133 46.7651 6.338 47.0078 6.702C47.2678 7.066 47.6318 7.378 48.0998 7.638C48.5851 7.88067 49.1484 8.106 49.7898 8.314C50.4311 8.522 51.1418 8.756 51.9218 9.016C52.8058 9.31067 53.5858 9.67467 54.2618 10.108C54.9551 10.524 55.4924 11.0613 55.8738 11.72C56.2724 12.3787 56.4718 13.2193 56.4718 14.242C56.4718 15.1087 56.2378 15.932 55.7698 16.712C55.3191 17.4747 54.6431 18.0987 53.7418 18.584C52.8404 19.0693 51.7051 19.312 50.3358 19.312ZM64.8941 19C64.1141 19 63.4381 18.8787 62.8661 18.636C62.2941 18.3933 61.8521 17.986 61.5401 17.414C61.2455 16.8247 61.0981 16.036 61.0981 15.048V7.17H58.7061V5.324H61.0981L61.3841 1.918H63.2821V5.324H67.1561V7.17H63.2821V15.048C63.2821 15.8627 63.4468 16.4173 63.7761 16.712C64.1055 16.9893 64.6861 17.128 65.5181 17.128H67.1041V19H64.8941ZM75.6732 19.312C74.4078 19.312 73.2898 19.0173 72.3192 18.428C71.3485 17.8387 70.5945 17.0067 70.0572 15.932C69.5198 14.8573 69.2512 13.6007 69.2512 12.162C69.2512 10.706 69.5198 9.44933 70.0572 8.392C70.6118 7.31733 71.3745 6.48533 72.3452 5.896C73.3332 5.30667 74.4598 5.012 75.7252 5.012C77.0078 5.012 78.1258 5.30667 79.0792 5.896C80.0498 6.48533 80.8038 7.31733 81.3412 8.392C81.8785 9.44933 82.1472 10.706 82.1472 12.162C82.1472 13.6007 81.8698 14.8573 81.3152 15.932C80.7778 17.0067 80.0238 17.8387 79.0532 18.428C78.0825 19.0173 76.9558 19.312 75.6732 19.312ZM75.6732 17.44C76.4705 17.44 77.1898 17.2493 77.8312 16.868C78.4725 16.4693 78.9752 15.88 79.3392 15.1C79.7205 14.3027 79.9112 13.3233 79.9112 12.162C79.9112 10.9833 79.7292 10.004 79.3652 9.224C79.0012 8.444 78.4985 7.86333 77.8572 7.482C77.2332 7.08333 76.5225 6.884 75.7252 6.884C74.9452 6.884 74.2345 7.08333 73.5932 7.482C72.9518 7.86333 72.4405 8.444 72.0592 9.224C71.6778 10.004 71.4872 10.9833 71.4872 12.162C71.4872 13.3233 71.6692 14.3027 72.0332 15.1C72.4145 15.88 72.9172 16.4693 73.5412 16.868C74.1825 17.2493 74.8932 17.44 75.6732 17.44ZM85.3108 19V5.324H87.2868L87.4428 7.82C87.7548 7.196 88.1622 6.676 88.6648 6.26C89.1675 5.844 89.7742 5.532 90.4848 5.324C91.2128 5.116 92.0275 5.012 92.9288 5.012V7.3H91.5768C91.0568 7.3 90.5542 7.36933 90.0688 7.508C89.5835 7.64667 89.1415 7.872 88.7428 8.184C88.3615 8.496 88.0582 8.92067 87.8328 9.458C87.6075 9.99533 87.4948 10.6713 87.4948 11.486V19H85.3108ZM100.627 19.312C99.4139 19.312 98.3393 19.0173 97.4033 18.428C96.4673 17.8387 95.7306 17.0067 95.1933 15.932C94.6733 14.8573 94.4133 13.6007 94.4133 12.162C94.4133 10.7233 94.6733 9.46667 95.1933 8.392C95.7306 7.31733 96.4673 6.48533 97.4033 5.896C98.3566 5.30667 99.4486 5.012 100.679 5.012C101.997 5.012 103.097 5.30667 103.981 5.896C104.865 6.48533 105.533 7.274 105.983 8.262C106.434 9.25 106.659 10.3333 106.659 11.512C106.659 11.6853 106.659 11.8587 106.659 12.032C106.659 12.2053 106.651 12.4133 106.633 12.656H96.0513V10.966H104.527C104.493 9.63133 104.103 8.61733 103.357 7.924C102.629 7.21333 101.719 6.858 100.627 6.858C99.8993 6.858 99.2233 7.04 98.5993 7.404C97.9926 7.75067 97.4986 8.27067 97.1173 8.964C96.7359 9.65733 96.5453 10.524 96.5453 11.564V12.292C96.5453 13.436 96.7359 14.398 97.1173 15.178C97.4986 15.9407 97.9926 16.5127 98.5993 16.894C99.2233 17.2753 99.8993 17.466 100.627 17.466C101.598 17.466 102.361 17.284 102.915 16.92C103.47 16.5387 103.877 16.0013 104.137 15.308H106.295C106.087 16.0707 105.723 16.7553 105.203 17.362C104.701 17.9687 104.059 18.4453 103.279 18.792C102.517 19.1387 101.633 19.312 100.627 19.312Z" fill="#4B5563"/>
</svg>
