<svg width="22" height="22" viewBox="0 0 22 22" fill="none" xmlns="http://www.w3.org/2000/svg">
<path d="M11.0001 13.1791C14.0329 13.1791 16.4914 10.2289 16.4914 6.58956C16.4914 2.95025 14.0329 0 11.0001 0C7.96733 0 5.50879 2.95025 5.50879 6.58956C5.50879 10.2289 7.96733 13.1791 11.0001 13.1791Z" fill="#6D6D6D"/>
<path d="M21.7629 18.7802C20.7745 16.8034 18.9075 15.156 16.4913 14.1675C15.8323 13.9479 15.0636 13.9479 14.5144 14.2774C13.4162 14.9363 12.3179 15.2658 11 15.2658C9.68209 15.2658 8.58383 14.9363 7.48557 14.2774C6.93644 14.0577 6.16766 13.9479 5.5087 14.2774C3.09253 15.2658 1.22548 16.9132 0.23705 18.8901C-0.531732 20.3178 0.676354 21.9652 2.32374 21.9652H19.6763C21.3236 21.9652 22.5317 20.3178 21.7629 18.7802Z" fill="#6D6D6D"/>
</svg>
