<svg width="22" height="22" viewBox="0 0 22 22" fill="none" xmlns="http://www.w3.org/2000/svg">
<path d="M13.2146 16.0063C11.9634 16.7555 10.532 17.1499 9.07368 17.1474C8.01322 17.1488 6.96292 16.9406 5.98317 16.5348C5.00343 16.129 4.11355 15.5335 3.3647 14.7827C2.61382 14.0338 2.01836 13.1439 1.61255 12.1642C1.20673 11.1844 0.998562 10.1342 1.00001 9.07368C1.00001 6.84415 1.90306 4.82633 3.3647 3.3647C4.11355 2.61382 5.00343 2.01836 5.98317 1.61255C6.96292 1.20673 8.01322 0.998562 9.07368 1.00001C11.3032 1.00001 13.321 1.90306 14.7827 3.3647C15.5335 4.11355 16.129 5.00343 16.5348 5.98317C16.9406 6.96292 17.1488 8.01322 17.1474 9.07368C17.1494 10.5059 16.7691 11.9127 16.0458 13.1488C15.4274 14.2038 15.5266 15.5266 16.3914 16.3914L21 21" stroke="#6D6D6D" stroke-width="2"/>
</svg>
