<svg width="16" height="18" viewBox="0 0 16 18" fill="none" xmlns="http://www.w3.org/2000/svg">
<path fill-rule="evenodd" clip-rule="evenodd" d="M3 5C2.44772 5 2 5.44772 2 6C2 6.55228 2.44772 7 3 7C3.55228 7 4 6.55228 4 6C4 5.44772 3.55228 5 3 5ZM0 6C0 4.34315 1.34315 3 3 3C4.65685 3 6 4.34315 6 6C6 7.6569 4.65685 9 3 9C1.34315 9 0 7.6569 0 6Z" fill="black"/>
<path fill-rule="evenodd" clip-rule="evenodd" d="M13 11C12.4477 11 12 11.4477 12 12C12 12.5523 12.4477 13 13 13C13.5523 13 14 12.5523 14 12C14 11.4477 13.5523 11 13 11ZM10 12C10 10.3431 11.3431 9 13 9C14.6569 9 16 10.3431 16 12C16 13.6569 14.6569 15 13 15C11.3431 15 10 13.6569 10 12Z" fill="black"/>
<path fill-rule="evenodd" clip-rule="evenodd" d="M3 7C3.55228 7 4 7.4477 4 8V17C4 17.5523 3.55228 18 3 18C2.44772 18 2 17.5523 2 17V8C2 7.4477 2.44772 7 3 7Z" fill="black"/>
<path fill-rule="evenodd" clip-rule="evenodd" d="M3 0C3.55228 0 4 0.44772 4 1V4C4 4.55228 3.55228 5 3 5C2.44772 5 2 4.55228 2 4V1C2 0.44772 2.44772 0 3 0Z" fill="black"/>
<path fill-rule="evenodd" clip-rule="evenodd" d="M13 13C13.5523 13 14 13.4477 14 14V17C14 17.5523 13.5523 18 13 18C12.4477 18 12 17.5523 12 17V14C12 13.4477 12.4477 13 13 13Z" fill="black"/>
<path fill-rule="evenodd" clip-rule="evenodd" d="M13 0C13.5523 0 14 0.44772 14 1V10C14 10.5523 13.5523 11 13 11C12.4477 11 12 10.5523 12 10V1C12 0.44772 12.4477 0 13 0Z" fill="black"/>
</svg>
